<?xml version="1.0" encoding="UTF-8" standalone="no"?>
<!-- Created with Inkscape (http://www.inkscape.org/) -->

<svg
   width="1370.9104"
   height="192.04694"
   viewBox="0 0 1370.9104 192.04694"
   version="1.1"
   id="svg5"
   sodipodi:docname="psorga-white.svg"
   inkscape:version="1.1 (c68e22c387, 2021-05-23)"
   xmlns:inkscape="http://www.inkscape.org/namespaces/inkscape"
   xmlns:sodipodi="http://sodipodi.sourceforge.net/DTD/sodipodi-0.dtd"
   xmlns="http://www.w3.org/2000/svg"
   xmlns:svg="http://www.w3.org/2000/svg">
  <sodipodi:namedview
     id="namedview7"
     pagecolor="#ffffff"
     bordercolor="#666666"
     borderopacity="1.0"
     inkscape:pageshadow="2"
     inkscape:pageopacity="0.0"
     inkscape:pagecheckerboard="0"
     showgrid="false"
     inkscape:zoom="0.63383838"
     inkscape:cx="774.64542"
     inkscape:cy="447.2749"
     inkscape:window-width="1920"
     inkscape:window-height="1009"
     inkscape:window-x="1672"
     inkscape:window-y="-8"
     inkscape:window-maximized="1"
     inkscape:current-layer="layer1" />
  <defs
     id="defs2" />
  <g
     inkscape:label="Layer 1"
     inkscape:groupmode="layer"
     id="layer1"
     transform="translate(671.14698,298.68911)">
    <path
       style="fill:#ffffff"
       d="m -659.23257,-109.43639 c -3.89375,-2.03412 -6.16903,-4.12085 -8.36419,-7.67107 l -3.01544,-4.87684 -0.26739,-79.61443 -0.26739,-79.61444 2.76739,-5.45963 c 2.08341,-4.11026 3.98362,-6.20231 7.68832,-8.4645 l 4.92092,-3.00487 79.52096,-0.27347 79.52096,-0.27347 5.31642,2.60108 c 5.98035,2.92592 9.55963,7.04415 11.25162,12.94586 0.83053,2.8969 1.06425,25.67004 0.84749,82.57895 l -0.2993,78.57896 -3.00487,4.92104 c -2.25651,3.69549 -4.35579,5.60592 -8.42931,7.67105 l -5.42445,2.75 h -78.70649 -78.7065 z m 73.12037,-61.10988 v -20.90411 l 13.83111,-0.34589 c 13.35724,-0.33405 13.99812,-0.44921 18.70578,-3.36134 3.54709,-2.19421 5.63565,-4.47213 7.66889,-8.36419 2.7041,-5.17625 2.79351,-5.8369 2.77226,-20.48456 -0.0236,-16.24702 -0.96393,-20.24166 -6.00272,-25.49961 -5.29521,-5.52552 -8.45723,-6.09041 -34.22532,-6.11424 l -23.75,-0.022 v 53 53 h 10.5 10.5 z m 0,-53.5959 v -10.5 h 11 11 v 10.5 10.5 h -11 -11 z m 161.87963,114.70578 c -3.89375,-2.03412 -6.16903,-4.12085 -8.36419,-7.67107 l -3.01544,-4.87684 -0.26739,-79.61443 -0.26739,-79.61444 2.76739,-5.45963 c 2.08341,-4.11026 3.98362,-6.20231 7.68832,-8.4645 l 4.92092,-3.00487 79.52096,-0.27347 79.52096,-0.27347 5.31642,2.60108 c 5.98035,2.92592 9.55963,7.04415 11.25162,12.94586 0.83053,2.8969 1.06425,25.67004 0.84749,82.57895 l -0.2993,78.57896 -3.00487,4.92104 c -2.25651,3.69549 -4.35579,5.60592 -8.42931,7.67105 l -5.42445,2.75 h -78.70649 -78.7065 z m 104.00489,-42.14687 c 4.97053,-2.53577 9.74202,-8.0523 11.05535,-12.78158 0.57694,-2.07753 1.05149,-10.13844 1.05455,-17.91314 0.005,-13.53764 -0.11266,-14.36214 -2.78864,-19.48456 -2.02945,-3.88481 -4.1216,-6.16941 -7.64402,-8.34715 -4.66782,-2.88589 -5.36972,-3.01268 -18.70578,-3.37892 l -13.85598,-0.38052 v -10.38652 -10.38652 h 21.5 21.5 v -10.5 -10.5 h -24.03984 c -26.94517,0 -28.54017,0.34081 -34.76276,7.42796 -4.51012,5.13673 -5.38265,9.74897 -5.01763,26.52332 0.31251,14.36103 0.3928,14.8332 3.32915,19.57757 2.13361,3.44735 4.45216,5.60483 7.97009,7.41639 4.44306,2.28797 6.34799,2.59111 18.24108,2.90287 l 13.27991,0.34812 v 10.40188 10.40189 h -21.5 -21.5 v 10.5 10.5 h 24.03984 c 21.82318,0 24.39067,-0.17898 27.84468,-1.94109 z m 131.99511,42.14687 c -3.89375,-2.03412 -6.16903,-4.12085 -8.36419,-7.67107 l -3.01544,-4.87684 -0.26739,-79.61443 -0.26739,-79.61444 2.76739,-5.45963 c 2.08341,-4.11026 3.98362,-6.20231 7.68832,-8.4645 l 4.92092,-3.00487 79.52096,-0.27347 79.520959,-0.27347 5.31642,2.60108 c 5.98035,2.92592 9.55963,7.04415 11.2516201,12.94586 0.83053,2.8969 1.06425,25.67004 0.84749,82.57895 l -0.2993,78.57896 -3.0048701,4.92104 c -2.25651,3.69549 -4.35579,5.60592 -8.42931,7.67105 l -5.42445,2.75 h -78.706489 -78.7065 z m 104.004889,-42.14687 c 4.97053,-2.53577 9.74202,-8.0523 11.05535,-12.78158 0.6429,-2.31505 1.04263,-17.52011 1.03259,-39.27733 -0.015,-32.4711 -0.17489,-35.84128 -1.87413,-39.5 -2.4394,-5.25242 -5.46839,-8.30984 -10.49331,-10.59184 -3.44214,-1.5632 -6.65475,-1.86778 -19.894859,-1.8862 -13.68428,-0.019 -16.29721,0.23688 -19.59468,1.91913 -4.97053,2.53577 -9.74202,8.0523 -11.05535,12.78158 -0.64024,2.30547 -1.05115,17.52525 -1.05455,39.05945 -0.006,38.41528 0.1395,39.56018 5.79747,45.59398 5.2885,5.6398 9.05129,6.57769 26.48679,6.60194 13.684279,0.019 16.297209,-0.23688 19.594679,-1.91913 z m -30.884519,-51.05891 v -32 h 11 10.999999 v 32 32 h -10.999999 -11 z m 162.879629,93.20578 c -3.89375,-2.03412 -6.16903,-4.12085 -8.36419,-7.67107 l -3.01544,-4.87684 -0.26739,-79.61443 -0.26739,-79.61444 2.76739,-5.45963 c 2.08341,-4.11026 3.98362,-6.20231 7.68832,-8.4645 l 4.92092,-3.00487 79.520961,-0.27347 79.52096,-0.27347 5.31642,2.60108 c 5.98035,2.92592 9.55963,7.04415 11.25162,12.94586 0.83053,2.8969 1.06425,25.67004 0.84749,82.57895 l -0.2993,78.57896 -3.00487,4.92104 c -2.25651,3.69549 -4.35579,5.60592 -8.42931,7.67105 l -5.42445,2.75 H 131.82268 53.116179 Z M 206.3878,-202.64217 v -74.5 h -74.5 -74.500001 l -0.25865,73.5 c -0.14226,40.425 -0.0428,74.06539 0.22107,74.75641 0.38036,0.99617 15.86551,1.20331 74.758661,1 l 74.27892,-0.25641 z m -106.500001,0 v -53 l 23.750001,0.022 c 26.73351,0.0247 28.98409,0.49434 34.95403,7.29373 4.43457,5.05069 5.28399,9.10288 5.29039,25.23797 0.005,13.16754 -0.1598,14.38553 -2.61733,19.31714 -1.66526,3.34176 -4.03846,6.20027 -6.5,7.82924 -2.1324,1.41115 -3.87709,2.7337 -3.87709,2.939 0,0.41854 11.78308,40.13693 12.50285,42.1446 0.36014,1.00453 -1.86768,1.22197 -10.24571,1 l -10.70591,-0.28364 -6.14433,-20.5 -6.14433,-20.5 -4.63128,-0.30479 -4.63129,-0.30479 v 21.05479 21.05479 h -10.5 -10.500001 z m 43.000001,-21.5 v -10.5 h -11 -11 v 10.5 10.5 h 11 11 z m 140.87963,114.70578 c -3.89375,-2.03412 -6.16903,-4.12085 -8.36419,-7.67107 l -3.01544,-4.87684 -0.26739,-79.61443 -0.26739,-79.61444 2.76739,-5.45963 c 2.08341,-4.11026 3.98362,-6.20231 7.68832,-8.4645 l 4.92092,-3.00487 79.52095,-0.27347 79.521,-0.27347 5.3164,2.60108 c 5.9803,2.92592 9.5596,7.04415 11.2516,12.94586 0.8305,2.8969 1.0643,25.67004 0.8475,82.57895 l -0.2993,78.57896 -3.0049,4.92104 c -2.2565,3.69549 -4.3558,5.60592 -8.4293,7.67105 l -5.4244,2.75 h -78.7065 -78.70652 z m 158.62037,-93.20578 v -74.5 h -74.5 -74.5 l -0.25865,73.5 c -0.14226,40.425 -0.0428,74.06539 0.22107,74.75641 0.38036,0.99617 15.86548,1.20331 74.75868,1 l 74.2789,-0.25641 z m -94.2725,50.88357 c -5.0783,-2.51372 -9.892,-8.03006 -11.2425,-12.88357 -1.3375,-4.807 -1.2719,-71.42665 0.075,-76.27733 1.3651,-4.91571 6.3898,-10.56738 11.4313,-12.85769 3.512,-1.59546 6.9508,-1.82378 27.7586,-1.84302 l 23.7501,-0.022 v 10.5 10.5 h -21.5 -21.5 v 32 32 h 11 11 v -21.5 -21.5 h 10.5 10.5 l -0.01,22.75 c 0,12.78842 -0.4649,24.40399 -1.0545,26.52733 -1.3651,4.91571 -6.3898,10.56739 -11.4313,12.85769 -3.3173,1.50699 -6.6818,1.82471 -19.5086,1.84223 -13.7927,0.0188 -15.9706,-0.21177 -19.7725,-2.09368 z m 171.6521,42.32221 c -3.8937,-2.03412 -6.169,-4.12085 -8.3642,-7.67107 l -3.0154,-4.87684 -0.2674,-79.61443 -0.2674,-79.61444 2.7674,-5.45963 c 2.0834,-4.11026 3.9836,-6.20231 7.6883,-8.4645 l 4.921,-3.00487 79.5209,-0.27347 79.521,-0.27347 5.3164,2.60108 c 5.9803,2.92592 9.5596,7.04415 11.2516,12.94586 0.8305,2.8969 1.0643,25.67004 0.8475,82.57895 l -0.2993,78.57896 -3.0049,4.92104 c -2.2565,3.69549 -4.3558,5.60592 -8.4293,7.67105 l -5.4244,2.75 h -78.7065 -78.7065 z m 158.6204,-93.20578 v -74.5 h -74.5 -74.5 l -0.2587,73.5 c -0.1422,40.425 -0.043,74.06539 0.2211,74.75641 0.3804,0.99617 15.8655,1.20331 74.7587,1 l 74.2789,-0.25641 z m -106.4944,9.25 c 0,-27.44335 0.3965,-45.1579 1.0545,-47.52733 1.3651,-4.91571 6.3898,-10.56738 11.4313,-12.85769 5.8773,-2.66998 33.1399,-2.66998 39.0172,0 5.0415,2.29031 10.0662,7.94198 11.4313,12.85769 0.658,2.36943 1.051,20.08398 1.0545,47.52733 l 0.01,43.75 h -10.5 -10.5 v -21 -21 h -11 -11 v 21 21 h -10.5 -10.5 l 0.01,-43.75 z m 42.9944,-30.75 v -10.5 h -11 -11 v 10.5 10.5 h 11 11 z"
       id="path1271" />
  </g>
</svg>
